<?xml version="1.0" encoding="utf-8"?>
<!-- Generator: Adobe Illustrator 16.0.0, SVG Export Plug-In . SVG Version: 6.00 Build 0)  -->
<!DOCTYPE svg PUBLIC "-//W3C//DTD SVG 1.1//EN" "http://www.w3.org/Graphics/SVG/1.1/DTD/svg11.dtd">
<svg version="1.1" id="Слой_2" xmlns="http://www.w3.org/2000/svg" xmlns:xlink="http://www.w3.org/1999/xlink" x="0px" y="0px"
	 width="15px" height="8.045px" viewBox="0 54.455 15 8.045" enable-background="new 0 54.455 15 8.045" xml:space="preserve">
<g>
	<path fill="#FFFFFF" d="M7.5,57c-3.75,0-3.75-2.545-7.5-2.545v4.5c2.029,0,3.092,0.722,4.031,1.358
		C4.93,60.924,5.779,61.5,7.5,61.5c1.722,0,2.57-0.576,3.469-1.187c0.938-0.637,2.003-1.358,4.031-1.358v-4.5
		C11.25,54.455,11.25,57,7.5,57z"/>
	<g>
		<path fill="#DBF2FC" d="M7.5,62.5c-2.029,0-3.092-0.722-4.031-1.358C2.57,60.531,1.721,59.955,0,59.955v-1
			c2.029,0,3.092,0.722,4.031,1.358C4.93,60.924,5.779,61.5,7.5,61.5c1.722,0,2.57-0.576,3.469-1.187
			c0.938-0.637,2.003-1.358,4.031-1.358v1c-1.722,0-2.57,0.576-3.469,1.187C10.593,61.778,9.528,62.5,7.5,62.5z"/>
	</g>
</g>
</svg>
